<svg width="21" height="20" viewBox="0 0 21 20" fill="none" xmlns="http://www.w3.org/2000/svg">
<mask id="mask0_63_1430" style="mask-type:alpha" maskUnits="userSpaceOnUse" x="0" y="0" width="21" height="20">
<rect x="0.5" width="20" height="20" fill="#D9D9D9"/>
</mask>
<g mask="url(#mask0_63_1430)">
<path d="M7.50065 13.8782L10.5007 10.8782L13.5007 13.8782L14.3788 13L11.3788 10L14.3788 7.00004L13.5007 6.12192L10.5007 9.12192L7.50065 6.12192L6.62253 7.00004L9.62253 10L6.62253 13L7.50065 13.8782ZM10.5021 17.9167C9.40711 17.9167 8.37787 17.7089 7.4144 17.2934C6.45093 16.8778 5.61287 16.3139 4.90023 15.6015C4.1876 14.8891 3.62336 14.0514 3.20753 13.0884C2.79183 12.1253 2.58398 11.0964 2.58398 10.0015C2.58398 8.9065 2.79176 7.87726 3.20732 6.91379C3.62287 5.95032 4.18683 5.11226 4.89919 4.39962C5.61155 3.68698 6.44926 3.12275 7.41232 2.70692C8.37537 2.29122 9.40433 2.08337 10.4992 2.08337C11.5942 2.08337 12.6234 2.29115 13.5869 2.70671C14.5504 3.12226 15.3884 3.68622 16.1011 4.39858C16.8137 5.11094 17.3779 5.94865 17.7938 6.91171C18.2095 7.87476 18.4173 8.90372 18.4173 9.99858C18.4173 11.0936 18.2095 12.1228 17.794 13.0863C17.3784 14.0498 16.8145 14.8878 16.1021 15.6005C15.3897 16.3131 14.552 16.8773 13.589 17.2932C12.6259 17.7089 11.597 17.9167 10.5021 17.9167ZM10.5007 16.6667C12.3618 16.6667 13.9382 16.0209 15.2298 14.7292C16.5215 13.4375 17.1673 11.8612 17.1673 10C17.1673 8.13893 16.5215 6.56254 15.2298 5.27087C13.9382 3.97921 12.3618 3.33337 10.5007 3.33337C8.63954 3.33337 7.06315 3.97921 5.77148 5.27087C4.47982 6.56254 3.83398 8.13893 3.83398 10C3.83398 11.8612 4.47982 13.4375 5.77148 14.7292C7.06315 16.0209 8.63954 16.6667 10.5007 16.6667Z" fill="#808B9F"/>
</g>
</svg>
