<svg width="20" height="20" viewBox="0 0 20 20" fill="none" xmlns="http://www.w3.org/2000/svg">
<mask id="mask0_63_1424" style="mask-type:alpha" maskUnits="userSpaceOnUse" x="0" y="0" width="20" height="20">
<rect width="20" height="20" fill="#D9D9D9"/>
</mask>
<g mask="url(#mask0_63_1424)">
<path d="M8.81794 13.5448L14.4204 7.94233L13.5423 7.06421L8.81794 11.7886L6.44294 9.41358L5.56482 10.2917L8.81794 13.5448ZM10.0021 17.9167C8.90711 17.9167 7.87787 17.7089 6.9144 17.2934C5.95093 16.8778 5.11287 16.3139 4.40023 15.6015C3.6876 14.8891 3.12336 14.0514 2.70753 13.0884C2.29183 12.1253 2.08398 11.0964 2.08398 10.0015C2.08398 8.9065 2.29176 7.87726 2.70732 6.91379C3.12287 5.95032 3.68683 5.11226 4.39919 4.39962C5.11155 3.68698 5.94926 3.12275 6.91232 2.70692C7.87537 2.29122 8.90433 2.08337 9.99919 2.08337C11.0942 2.08337 12.1234 2.29115 13.0869 2.70671C14.0504 3.12226 14.8884 3.68622 15.6011 4.39858C16.3137 5.11094 16.8779 5.94865 17.2938 6.91171C17.7095 7.87476 17.9173 8.90372 17.9173 9.99858C17.9173 11.0936 17.7095 12.1228 17.294 13.0863C16.8784 14.0498 16.3145 14.8878 15.6021 15.6005C14.8897 16.3131 14.052 16.8773 13.089 17.2932C12.1259 17.7089 11.097 17.9167 10.0021 17.9167ZM10.0007 16.6667C11.8618 16.6667 13.4382 16.0209 14.7298 14.7292C16.0215 13.4375 16.6673 11.8612 16.6673 10C16.6673 8.13893 16.0215 6.56254 14.7298 5.27087C13.4382 3.97921 11.8618 3.33337 10.0007 3.33337C8.13954 3.33337 6.56315 3.97921 5.27148 5.27087C3.97982 6.56254 3.33398 8.13893 3.33398 10C3.33398 11.8612 3.97982 13.4375 5.27148 14.7292C6.56315 16.0209 8.13954 16.6667 10.0007 16.6667Z" fill="white"/>
</g>
</svg>
