<svg width="20" height="20" viewBox="0 0 20 20" fill="none" xmlns="http://www.w3.org/2000/svg">
<mask id="mask0_113_3111" style="mask-type:alpha" maskUnits="userSpaceOnUse" x="0" y="0" width="20" height="20">
<rect width="20" height="20" fill="#D9D9D9"/>
</mask>
<g mask="url(#mask0_113_3111)">
<path d="M7.83333 13.4615L10 11.2948L12.1667 13.4615L13.0448 12.5834L10.8781 10.4167L13.0448 8.25002L12.1667 7.3719L10 9.53857L7.83333 7.3719L6.95521 8.25002L9.12188 10.4167L6.95521 12.5834L7.83333 13.4615ZM6.08979 17.0834C5.66882 17.0834 5.3125 16.9375 5.02083 16.6459C4.72917 16.3542 4.58333 15.9979 4.58333 15.5769V5.00002H3.75V3.75002H7.5V3.01294H12.5V3.75002H16.25V5.00002H15.4167V15.5769C15.4167 15.9979 15.2708 16.3542 14.9792 16.6459C14.6875 16.9375 14.3312 17.0834 13.9102 17.0834H6.08979ZM14.1667 5.00002H5.83333V15.5769C5.83333 15.6411 5.86007 15.6998 5.91354 15.7531C5.96688 15.8066 6.02562 15.8334 6.08979 15.8334H13.9102C13.9744 15.8334 14.0331 15.8066 14.0865 15.7531C14.1399 15.6998 14.1667 15.6411 14.1667 15.5769V5.00002Z" fill="#1155CC"/>
</g>
</svg>
