<svg width="20" height="20" viewBox="0 0 20 20" fill="none" xmlns="http://www.w3.org/2000/svg">
<mask id="mask0_113_3093" style="mask-type:alpha" maskUnits="userSpaceOnUse" x="0" y="0" width="20" height="20">
<rect width="20" height="20" fill="#D9D9D9"/>
</mask>
<g mask="url(#mask0_113_3093)">
<path d="M10.0007 1.3302L17.3179 5.68583C17.5038 5.80666 17.6502 5.96562 17.7571 6.1627C17.8639 6.35978 17.9173 6.56944 17.9173 6.79166V15.5769C17.9173 15.9978 17.7715 16.3542 17.4798 16.6458C17.1882 16.9375 16.8318 17.0833 16.4109 17.0833H3.59044C3.16947 17.0833 2.81315 16.9375 2.52148 16.6458C2.22982 16.3542 2.08398 15.9978 2.08398 15.5769V6.79166C2.08398 6.56944 2.13739 6.35978 2.24419 6.1627C2.35114 5.96562 2.49753 5.80666 2.68336 5.68583L10.0007 1.3302ZM10.0007 10.5417L16.5007 6.66666L10.0007 2.79166L3.50065 6.66666L10.0007 10.5417ZM10.0007 12.0031L3.33398 8.01916V15.5769C3.33398 15.6517 3.35801 15.7132 3.40607 15.7612C3.45412 15.8093 3.51558 15.8333 3.59044 15.8333H16.4109C16.4857 15.8333 16.5472 15.8093 16.5952 15.7612C16.6433 15.7132 16.6673 15.6517 16.6673 15.5769V8.01916L10.0007 12.0031Z" fill="#808B9F"/>
</g>
</svg>
