<svg width="16" height="16" viewBox="0 0 16 16" fill="none" xmlns="http://www.w3.org/2000/svg">
<path d="M2.16602 13.8333H3.21727L11.7477 5.30288L10.6964 4.25163L2.16602 12.782V13.8333ZM0.916016 15.0833V12.2629L11.9081 1.27558C12.0341 1.16114 12.1732 1.07274 12.3254 1.01038C12.4778 0.947876 12.6375 0.916626 12.8046 0.916626C12.9716 0.916626 13.1334 0.946279 13.29 1.00558C13.4466 1.06489 13.5853 1.15919 13.706 1.2885L14.7237 2.31892C14.853 2.43961 14.9452 2.5785 15.0002 2.73558C15.0552 2.89267 15.0827 3.04975 15.0827 3.20683C15.0827 3.37447 15.0541 3.5344 14.9969 3.68663C14.9396 3.83899 14.8486 3.97815 14.7237 4.10413L3.73643 15.0833H0.916016ZM11.2129 4.78642L10.6964 4.25163L11.7477 5.30288L11.2129 4.78642Z" fill="#263753"/>
</svg>
