<svg width="20" height="20" viewBox="0 0 20 20" fill="none" xmlns="http://www.w3.org/2000/svg">
<path d="M16.4269 6.75688C16.2044 5.07188 14.7425 3.75875 13 3.75875C12.3275 3.75875 11.6812 3.95313 11.1306 4.31375C10.6571 3.81275 10.0866 3.41324 9.45387 3.13948C8.82115 2.86573 8.1394 2.72344 7.45 2.72125C4.64125 2.72125 2.35625 5.00625 2.35625 7.815C2.35625 8.04 2.36875 8.25 2.39375 8.44813C1.86667 8.82024 1.43661 9.31343 1.1397 9.88626C0.842794 10.4591 0.687717 11.0948 0.6875 11.74C0.6875 13.9694 2.49875 15.7838 4.725 15.7838C4.87418 15.7838 5.01726 15.7245 5.12275 15.619C5.22824 15.5135 5.2875 15.3704 5.2875 15.2213C5.2875 15.0721 5.22824 14.929 5.12275 14.8235C5.01726 14.718 4.87418 14.6588 4.725 14.6588C3.9522 14.6569 3.21166 14.3487 2.6658 13.8017C2.11993 13.2546 1.81329 12.5134 1.81313 11.7406C1.81313 10.6925 2.37813 9.72375 3.28875 9.21188C3.39487 9.15216 3.47874 9.05961 3.52776 8.94815C3.57679 8.83669 3.58832 8.71233 3.56063 8.59375C3.50462 8.33826 3.4782 8.07716 3.48188 7.81563C3.4832 6.76346 3.90176 5.75476 4.64576 5.01076C5.38975 4.26676 6.39845 3.8482 7.45062 3.84688C8.6825 3.84688 9.85937 4.4375 10.6 5.42688C10.6474 5.49033 10.7078 5.54301 10.777 5.58147C10.8463 5.61993 10.9229 5.64328 11.0019 5.65C11.0805 5.65489 11.1593 5.64415 11.2338 5.61841C11.3082 5.59266 11.3768 5.55242 11.4356 5.5C11.8596 5.10254 12.4195 4.88229 13.0006 4.88438C14.2656 4.88438 15.3119 5.90875 15.3319 7.16813C15.3337 7.28543 15.3722 7.39922 15.4419 7.49359C15.5116 7.58795 15.609 7.65815 15.7206 7.69438C16.4379 7.925 17.0634 8.37757 17.5068 8.98677C17.9502 9.59596 18.1886 10.3303 18.1875 11.0838C18.1865 12.0316 17.8095 12.9403 17.1393 13.6106C16.4691 14.2808 15.5603 14.6578 14.6125 14.6588C14.4633 14.6588 14.3202 14.718 14.2148 14.8235C14.1093 14.929 14.05 15.0721 14.05 15.2213C14.05 15.3704 14.1093 15.5135 14.2148 15.619C14.3202 15.7245 14.4633 15.7838 14.6125 15.7838C17.2037 15.7838 19.3131 13.675 19.3131 11.0831C19.3142 10.1573 19.0405 9.25204 18.5267 8.4819C18.0129 7.71176 17.2821 7.11141 16.4269 6.75688Z" fill="#808B9F"/>
<path d="M10.3974 9.02749C10.3451 8.97524 10.2831 8.93379 10.2148 8.90551C10.1466 8.87723 10.0734 8.86267 9.99954 8.86267C9.92566 8.86267 9.8525 8.87723 9.78424 8.90551C9.71599 8.93379 9.65397 8.97524 9.60173 9.02749L6.93236 11.6969C6.88012 11.7491 6.83868 11.8111 6.8104 11.8794C6.78213 11.9476 6.76758 12.0208 6.76758 12.0947C6.76758 12.1686 6.78213 12.2417 6.8104 12.31C6.83868 12.3782 6.88012 12.4402 6.93236 12.4925C6.9846 12.5447 7.04662 12.5862 7.11488 12.6144C7.18313 12.6427 7.25629 12.6573 7.33017 12.6573C7.40405 12.6573 7.47721 12.6427 7.54546 12.6144C7.61372 12.5862 7.67574 12.5447 7.72798 12.4925L9.43611 10.7837V16.7162C9.43611 16.8654 9.49537 17.0085 9.60086 17.114C9.70635 17.2195 9.84942 17.2787 9.99861 17.2787C10.1478 17.2787 10.2909 17.2195 10.3964 17.114C10.5018 17.0085 10.5611 16.8654 10.5611 16.7162V10.7837L12.2692 12.4925C12.3214 12.5451 12.3834 12.5868 12.4517 12.6153C12.52 12.6437 12.5933 12.6584 12.6674 12.6584C12.7414 12.6584 12.8147 12.6437 12.883 12.6153C12.9513 12.5868 13.0134 12.5451 13.0655 12.4925C13.1177 12.4403 13.1592 12.3782 13.1875 12.31C13.2157 12.2417 13.2303 12.1686 13.2303 12.0947C13.2303 12.0208 13.2157 11.9476 13.1875 11.8794C13.1592 11.8111 13.1177 11.7491 13.0655 11.6969L10.3974 9.02749Z" fill="#808B9F"/>
</svg>
