<svg width="24" height="24" viewBox="0 0 26 26" fill="none" xmlns="http://www.w3.org/2000/svg">
<path fill-rule="evenodd" clip-rule="evenodd" d="M13 9.25C12.0054 9.25 11.0516 9.64509 10.3483 10.3483C9.64509 11.0516 9.25 12.0054 9.25 13C9.25 13.9946 9.64509 14.9484 10.3483 15.6517C11.0516 16.3549 12.0054 16.75 13 16.75C13.9946 16.75 14.9484 16.3549 15.6517 15.6517C16.3549 14.9484 16.75 13.9946 16.75 13C16.75 12.0054 16.3549 11.0516 15.6517 10.3483C14.9484 9.64509 13.9946 9.25 13 9.25ZM6.75 13C6.75 11.3424 7.40848 9.75269 8.58058 8.58058C9.75269 7.40848 11.3424 6.75 13 6.75C14.6576 6.75 16.2473 7.40848 17.4194 8.58058C18.5915 9.75269 19.25 11.3424 19.25 13C19.25 14.6576 18.5915 16.2473 17.4194 17.4194C16.2473 18.5915 14.6576 19.25 13 19.25C11.3424 19.25 9.75269 18.5915 8.58058 17.4194C7.40848 16.2473 6.75 14.6576 6.75 13ZM21.75 13C21.75 12.6685 21.8817 12.3505 22.1161 12.1161C22.3505 11.8817 22.6685 11.75 23 11.75H24.25C24.5815 11.75 24.8995 11.8817 25.1339 12.1161C25.3683 12.3505 25.5 12.6685 25.5 13C25.5 13.3315 25.3683 13.6495 25.1339 13.8839C24.8995 14.1183 24.5815 14.25 24.25 14.25H23C22.6685 14.25 22.3505 14.1183 22.1161 13.8839C21.8817 13.6495 21.75 13.3315 21.75 13ZM0.5 13C0.5 12.6685 0.631696 12.3505 0.866116 12.1161C1.10054 11.8817 1.41848 11.75 1.75 11.75H3C3.33152 11.75 3.64946 11.8817 3.88388 12.1161C4.1183 12.3505 4.25 12.6685 4.25 13C4.25 13.3315 4.1183 13.6495 3.88388 13.8839C3.64946 14.1183 3.33152 14.25 3 14.25H1.75C1.41848 14.25 1.10054 14.1183 0.866116 13.8839C0.631696 13.6495 0.5 13.3315 0.5 13ZM13 21.75C13.3315 21.75 13.6495 21.8817 13.8839 22.1161C14.1183 22.3505 14.25 22.6685 14.25 23V24.25C14.25 24.5815 14.1183 24.8995 13.8839 25.1339C13.6495 25.3683 13.3315 25.5 13 25.5C12.6685 25.5 12.3505 25.3683 12.1161 25.1339C11.8817 24.8995 11.75 24.5815 11.75 24.25V23C11.75 22.6685 11.8817 22.3505 12.1161 22.1161C12.3505 21.8817 12.6685 21.75 13 21.75ZM13 0.5C13.3315 0.5 13.6495 0.631696 13.8839 0.866116C14.1183 1.10054 14.25 1.41848 14.25 1.75V3C14.25 3.33152 14.1183 3.64946 13.8839 3.88388C13.6495 4.1183 13.3315 4.25 13 4.25C12.6685 4.25 12.3505 4.1183 12.1161 3.88388C11.8817 3.64946 11.75 3.33152 11.75 3V1.75C11.75 1.41848 11.8817 1.10054 12.1161 0.866116C12.3505 0.631696 12.6685 0.5 13 0.5ZM19.1875 19.1875C19.4219 18.9532 19.7398 18.8215 20.0713 18.8215C20.4027 18.8215 20.7206 18.9532 20.955 19.1875L21.8388 20.0713C22.0664 20.307 22.1924 20.6228 22.1896 20.9505C22.1867 21.2782 22.0553 21.5918 21.8235 21.8235C21.5918 22.0553 21.2782 22.1867 20.9505 22.1896C20.6228 22.1924 20.307 22.0664 20.0713 21.8388L19.1875 20.955C18.9532 20.7206 18.8215 20.4027 18.8215 20.0713C18.8215 19.7398 18.9532 19.4219 19.1875 19.1875ZM4.16125 4.16125C4.39566 3.92691 4.71355 3.79527 5.045 3.79527C5.37646 3.79527 5.69434 3.92691 5.92875 4.16125L6.8125 5.045C6.93189 5.16031 7.02712 5.29824 7.09263 5.45075C7.15814 5.60325 7.19262 5.76727 7.19406 5.93325C7.19551 6.09922 7.16388 6.26382 7.10103 6.41744C7.03818 6.57106 6.94536 6.71063 6.82799 6.82799C6.71063 6.94536 6.57106 7.03818 6.41744 7.10103C6.26382 7.16388 6.09922 7.19551 5.93325 7.19406C5.76727 7.19262 5.60325 7.15814 5.45075 7.09263C5.29824 7.02712 5.16031 6.93189 5.045 6.8125L4.16125 5.92875C3.92691 5.69434 3.79527 5.37646 3.79527 5.045C3.79527 4.71355 3.92691 4.39566 4.16125 4.16125ZM6.8125 19.1875C7.04684 19.4219 7.17848 19.7398 7.17848 20.0713C7.17848 20.4027 7.04684 20.7206 6.8125 20.955L5.92875 21.8388C5.693 22.0664 5.37724 22.1924 5.0495 22.1896C4.72175 22.1867 4.40824 22.0553 4.17648 21.8235C3.94472 21.5918 3.81326 21.2782 3.81041 20.9505C3.80756 20.6228 3.93355 20.307 4.16125 20.0713L5.045 19.1875C5.27941 18.9532 5.5973 18.8215 5.92875 18.8215C6.26021 18.8215 6.57809 18.9532 6.8125 19.1875ZM21.8388 4.16125C22.0731 4.39566 22.2047 4.71355 22.2047 5.045C22.2047 5.37646 22.0731 5.69434 21.8388 5.92875L20.955 6.8125C20.7192 7.0402 20.4035 7.16619 20.0758 7.16334C19.748 7.1605 19.4345 7.02903 19.2027 6.79727C18.971 6.56551 18.8395 6.252 18.8367 5.92425C18.8338 5.59651 18.9598 5.28075 19.1875 5.045L20.0713 4.16125C20.3057 3.92691 20.6235 3.79527 20.955 3.79527C21.2865 3.79527 21.6043 3.92691 21.8388 4.16125Z" fill="#263753"/>
</svg>
