<svg width="250" height="25" viewBox="0 0 300 30" fill="none" xmlns="http://www.w3.org/2000/svg">
<path d="M0 29.0419V0.735062H6.82453V29.0419H0Z" fill="#1155CC"/>
<path d="M37.6681 0.735062V29.0419H30.8439L17.9749 11.5721V29.0419H11.1504V0.735062H17.9749L30.8439 18.2048V0.735062H37.6681Z" fill="#1155CC"/>
<path d="M67.6828 0.735062L57.1888 27.461L56.5668 29.0415H50.9406L50.5499 28.0491L50.3186 27.461L39.8281 0.735062H47.4106L53.7533 18.077L60.1003 0.735062H67.6828Z" fill="#1155CC"/>
<path d="M99.0488 29.0419V0.735062H105.873V29.0419H99.0488Z" fill="#1155CC"/>
<path d="M135.747 22.2046C133.437 26.8497 128.886 30 123.251 30C114.321 30 109.102 23.2844 109.102 15.0002C109.102 6.71559 114.321 0 123.251 0C128.87 0 133.364 3.08131 135.681 7.64096L128.963 10.588C127.833 8.06204 125.72 6.36962 123.092 6.36962C118.821 6.36962 116.324 10.2334 116.324 14.9998C116.324 19.7657 118.821 23.6295 123.092 23.6295C125.715 23.6295 127.845 21.915 128.977 19.3622L135.747 22.2046Z" fill="#1155CC"/>
<path d="M145.404 22.7514H153.793V29.0419H138.58V0.735062H145.404V0.788164H153.793V7.07859H145.404V22.7514Z" fill="#1155CC"/>
<path d="M146.945 14.9123C146.945 12.8013 148.544 11.0901 150.517 11.0901C152.489 11.0901 154.088 12.8013 154.088 14.9123C154.088 17.0233 152.489 18.7344 150.517 18.7344C148.544 18.7344 146.945 17.0233 146.945 14.9123Z" fill="#1155CC"/>
<rect width="27" height="28.5" rx="13.5" transform="matrix(-1 0 0 1 94.5 0)" fill="#1155CC"/>
<path d="M85.6296 7.44098C86.1588 7.44278 86.6659 7.66783 87.0401 8.06701C87.4143 8.46619 87.6253 9.00708 87.627 9.5716V24.0598C87.6268 24.1368 87.607 24.2124 87.5698 24.2784C87.5326 24.3443 87.4794 24.3984 87.4157 24.4346C87.352 24.4709 87.2803 24.4881 87.2082 24.4844C87.1361 24.4807 87.0663 24.4562 87.0062 24.4135L86.0291 23.7198L85.052 24.4135C84.9864 24.4601 84.9094 24.4849 84.8307 24.4849C84.7519 24.4849 84.6749 24.4601 84.6094 24.4135L83.6323 23.7198L82.6552 24.4135C82.5896 24.4601 82.5126 24.4849 82.4339 24.4849C82.3551 24.4849 82.2781 24.4601 82.2126 24.4135L81.2355 23.7198L80.2584 24.4135C80.1928 24.4601 80.1158 24.4849 80.0371 24.4849C79.9583 24.4849 79.8813 24.4601 79.8158 24.4135L78.8387 23.7198L77.8616 24.4135C77.8015 24.4562 77.7317 24.4807 77.6596 24.4844C77.5875 24.4881 77.5158 24.4709 77.4521 24.4346C77.3884 24.3984 77.3351 24.3443 77.2979 24.2784C77.2607 24.2124 77.241 24.1368 77.2408 24.0598V15.1112H75.2435C75.1375 15.1112 75.0359 15.0663 74.961 14.9864C74.8861 14.9065 74.844 14.7981 74.844 14.6851V9.14548C74.844 8.20971 75.5639 7.44098 76.4419 7.44098H85.6296ZM76.4419 8.29323C75.9961 8.29323 75.643 8.66992 75.643 9.14548V14.259H77.2408V9.14548C77.2408 8.66992 76.8877 8.29323 76.4419 8.29323ZM84.8307 9.99773H82.4339C82.3279 9.99773 82.2263 10.0426 82.1514 10.1225C82.0765 10.2024 82.0344 10.3108 82.0344 10.4239C82.0344 10.5369 82.0765 10.6453 82.1514 10.7252C82.2263 10.8051 82.3279 10.85 82.4339 10.85H84.8307C84.9366 10.85 85.0382 10.8051 85.1132 10.7252C85.1881 10.6453 85.2302 10.5369 85.2302 10.4239C85.2302 10.3108 85.1881 10.2024 85.1132 10.1225C85.0382 10.0426 84.9366 9.99773 84.8307 9.99773ZM84.8307 12.5545H80.0371C79.9311 12.5545 79.8295 12.5994 79.7546 12.6793C79.6797 12.7592 79.6376 12.8676 79.6376 12.9806C79.6376 13.0936 79.6797 13.202 79.7546 13.2819C79.8295 13.3618 79.9311 13.4067 80.0371 13.4067H84.8307C84.9366 13.4067 85.0382 13.3618 85.1132 13.2819C85.1881 13.202 85.2302 13.0936 85.2302 12.9806C85.2302 12.8676 85.1881 12.7592 85.1132 12.6793C85.0382 12.5994 84.9366 12.5545 84.8307 12.5545ZM84.8307 15.1112H80.0371C79.9311 15.1112 79.8295 15.1561 79.7546 15.236C79.6797 15.3159 79.6376 15.4243 79.6376 15.5373C79.6376 15.6504 79.6797 15.7587 79.7546 15.8387C79.8295 15.9186 79.9311 15.9635 80.0371 15.9635H84.8307C84.9366 15.9635 85.0382 15.9186 85.1132 15.8387C85.1881 15.7587 85.2302 15.6504 85.2302 15.5373C85.2302 15.4243 85.1881 15.3159 85.1132 15.236C85.0382 15.1561 84.9366 15.1112 84.8307 15.1112ZM84.8307 17.668H80.0371C79.9311 17.668 79.8295 17.7129 79.7546 17.7928C79.6797 17.8727 79.6376 17.9811 79.6376 18.0941C79.6376 18.2071 79.6797 18.3155 79.7546 18.3954C79.8295 18.4753 79.9311 18.5202 80.0371 18.5202H84.8307C84.9366 18.5202 85.0382 18.4753 85.1132 18.3954C85.1881 18.3155 85.2302 18.2071 85.2302 18.0941C85.2302 17.9811 85.1881 17.8727 85.1132 17.7928C85.0382 17.7129 84.9366 17.668 84.8307 17.668Z" fill="white"/>
<path d="M187.248 20.0927C187.248 25.1721 183.768 29.002 176.542 29.002C171.403 29.002 167.816 27.1704 164.818 24.0338L168.245 19.038L168.78 19.6213C170.011 20.9532 172.688 23.1739 176.836 23.1739C179.62 23.1739 180.851 21.9526 180.851 20.759C180.851 19.2881 178.496 18.7049 175.766 18.0392C171.51 16.9844 166.317 15.5689 166.076 9.24056V8.991V8.74115V8.4913C166.21 3.96721 170.038 0.275665 176.221 0.275665C180.476 0.275665 184.17 1.60791 187.141 4.57786L183.554 9.46274L183.046 8.96305C181.146 7.15906 178.469 6.10433 175.685 6.10433C173.705 6.10433 172.527 6.88154 172.527 8.21378C172.527 9.4348 174.749 9.99011 177.318 10.6284C181.681 11.7108 187.007 13.1817 187.248 19.5654V19.8155V20.0927Z" fill="#1155CC"/>
<path d="M218.675 0.775223V28.5301H212.305V17.5391H200.929V28.5301H194.586V0.775223H200.929V11.683H212.305V0.775223H218.675Z" fill="#1155CC"/>
<path d="M226.002 28.5301H244.952V22.6738H226.002V28.5301ZM226.002 17.7056H244.952V11.8493H226.002V17.7056ZM226.002 0.775208V6.63154H244.952V0.775208H226.002Z" fill="#1155CC"/>
<path d="M252.32 28.5301H271.27V22.6738H252.32V28.5301ZM252.32 17.7056H271.27V11.8493H252.32V17.7056ZM252.32 0.775223V6.63156H271.27V0.775223H252.32Z" fill="#1155CC"/>
<path d="M300 0.775208V6.63154H292.532V28.5304H286.162V6.63154H278.641V0.775208H300Z" fill="#1155CC"/>
</svg>
