<svg width="20" height="20" viewBox="0 0 20 20" fill="none" xmlns="http://www.w3.org/2000/svg">
<mask id="mask0_113_3087" style="mask-type:alpha" maskUnits="userSpaceOnUse" x="0" y="0" width="20" height="20">
<rect width="20" height="20" fill="#D9D9D9"/>
</mask>
<g mask="url(#mask0_113_3087)">
<path d="M4.99935 17.9167C4.41713 17.9167 3.92435 17.715 3.52102 17.3117C3.11768 16.9083 2.91602 16.4168 2.91602 15.8371V13.75H5.41602V2.24353L6.56997 3.23728L7.73977 2.24353L8.90956 3.23728L10.0796 2.24353L11.2493 3.23728L12.4191 2.24353L13.5891 3.23728L14.7589 2.24353L15.9287 3.23728L17.0827 2.24353V15.8333C17.0827 16.4155 16.881 16.9083 16.4777 17.3117C16.0743 17.715 15.5816 17.9167 14.9993 17.9167H4.99935ZM14.9993 16.6667C15.2355 16.6667 15.4334 16.5868 15.5931 16.4271C15.7528 16.2673 15.8327 16.0694 15.8327 15.8333V4.16666H6.66602V13.75H14.166V15.8333C14.166 16.0694 14.2459 16.2673 14.4056 16.4271C14.5653 16.5868 14.7632 16.6667 14.9993 16.6667ZM7.65956 7.29166V6.04166H12.3871V7.29166H7.65956ZM7.65956 9.79166V8.54166H12.3871V9.79166H7.65956ZM14.1179 7.40374C13.9139 7.40374 13.74 7.33193 13.5962 7.18832C13.4526 7.04457 13.3808 6.87068 13.3808 6.66666C13.3808 6.46263 13.4526 6.28874 13.5962 6.14499C13.74 6.00138 13.9139 5.92957 14.1179 5.92957C14.3219 5.92957 14.4958 6.00138 14.6396 6.14499C14.7833 6.28874 14.8552 6.46263 14.8552 6.66666C14.8552 6.87068 14.7833 7.04457 14.6396 7.18832C14.4958 7.33193 14.3219 7.40374 14.1179 7.40374ZM14.1179 9.90374C13.9139 9.90374 13.74 9.83193 13.5962 9.68832C13.4526 9.54457 13.3808 9.37068 13.3808 9.16666C13.3808 8.96263 13.4526 8.78874 13.5962 8.64499C13.74 8.50138 13.9139 8.42957 14.1179 8.42957C14.3219 8.42957 14.4958 8.50138 14.6396 8.64499C14.7833 8.78874 14.8552 8.96263 14.8552 9.16666C14.8552 9.37068 14.7833 9.54457 14.6396 9.68832C14.4958 9.83193 14.3219 9.90374 14.1179 9.90374ZM4.99935 16.6667H12.916V15H4.16602V15.8333C4.16602 16.0694 4.24588 16.2673 4.4056 16.4271C4.56532 16.5868 4.76324 16.6667 4.99935 16.6667Z" fill="white"/>
</g>
</svg>
