<svg width="16" height="16" viewBox="0 0 16 16" fill="none" xmlns="http://www.w3.org/2000/svg">
<path d="M7.9987 4.08333C8.64303 4.08333 9.16536 3.561 9.16536 2.91667C9.16536 2.27233 8.64303 1.75 7.9987 1.75C7.35437 1.75 6.83203 2.27233 6.83203 2.91667C6.83203 3.561 7.35437 4.08333 7.9987 4.08333Z" fill="white"/>
<path d="M13.9987 6.08333C14.643 6.08333 15.1654 5.561 15.1654 4.91667C15.1654 4.27233 14.643 3.75 13.9987 3.75C13.3544 3.75 12.832 4.27233 12.832 4.91667C12.832 5.561 13.3544 6.08333 13.9987 6.08333Z" fill="white"/>
<path d="M1.9987 6.08333C2.64303 6.08333 3.16536 5.561 3.16536 4.91667C3.16536 4.27233 2.64303 3.75 1.9987 3.75C1.35437 3.75 0.832031 4.27233 0.832031 4.91667C0.832031 5.561 1.35437 6.08333 1.9987 6.08333Z" fill="white"/>
<path fill-rule="evenodd" clip-rule="evenodd" d="M14.1551 5.68133C14.1757 5.57809 14.1633 5.47097 14.1195 5.37523C14.0756 5.27949 14.0027 5.20002 13.9111 5.14815C13.8195 5.09628 13.7138 5.07466 13.6092 5.08636C13.5046 5.09807 13.4063 5.1425 13.3284 5.21333L11.8444 6.56267C11.6632 6.72739 11.4443 6.84523 11.207 6.90589C10.9697 6.96654 10.7212 6.96817 10.4831 6.91063C10.2451 6.85308 10.0247 6.73812 9.84132 6.57578C9.65793 6.41344 9.51708 6.20866 9.43108 5.97933L8.46641 3.408C8.43061 3.31281 8.36663 3.23079 8.28302 3.1729C8.1994 3.11501 8.10011 3.084 7.99841 3.084C7.89671 3.084 7.79742 3.11501 7.71381 3.1729C7.63019 3.23079 7.56621 3.31281 7.53041 3.408L6.56574 5.97933C6.48 6.20888 6.33928 6.4139 6.15591 6.57644C5.97254 6.73898 5.75211 6.85407 5.51393 6.91164C5.27575 6.96921 5.02709 6.9675 4.78972 6.90666C4.55236 6.84582 4.33353 6.72771 4.15241 6.56267L2.66841 5.21333C2.59051 5.1425 2.49225 5.09807 2.38761 5.08636C2.28298 5.07466 2.17732 5.09628 2.0857 5.14815C1.99408 5.20002 1.92117 5.27949 1.87737 5.37523C1.83356 5.47097 1.82109 5.57809 1.84174 5.68133L2.96041 11.276C3.04349 11.6917 3.26806 12.0657 3.59587 12.3345C3.92369 12.6032 4.33451 12.7501 4.75841 12.75H11.2384C11.6623 12.7501 12.0731 12.6032 12.4009 12.3345C12.7288 12.0657 12.9533 11.6917 13.0364 11.276L14.1551 5.68133ZM11.9984 13.75H3.99841C3.8658 13.75 3.73862 13.8027 3.64486 13.8964C3.55109 13.9902 3.49841 14.1174 3.49841 14.25C3.49841 14.3826 3.55109 14.5098 3.64486 14.6036C3.73862 14.6973 3.8658 14.75 3.99841 14.75H11.9984C12.131 14.75 12.2582 14.6973 12.352 14.6036C12.4457 14.5098 12.4984 14.3826 12.4984 14.25C12.4984 14.1174 12.4457 13.9902 12.352 13.8964C12.2582 13.8027 12.131 13.75 11.9984 13.75Z" fill="white"/>
</svg>
