<svg width="28" height="26" viewBox="0 0 28 26" fill="none" xmlns="http://www.w3.org/2000/svg">
<path d="M14.8125 17.5875C14.9875 17.1375 14.875 16.625 14.525 16.275L11.9125 13.7L11.95 13.6625C14.0677 11.3089 15.6499 8.52407 16.5875 5.5H19.0125C19.6875 5.5 20.25 4.9375 20.25 4.2625V4.2375C20.25 3.5625 19.6875 3 19.0125 3H11.5V1.75C11.5 1.0625 10.9375 0.5 10.25 0.5C9.5625 0.5 9 1.0625 9 1.75V3H1.4875C0.8125 3 0.25 3.5625 0.25 4.2375C0.25 4.925 0.8125 5.475 1.4875 5.475H14.2125C13.355 7.95551 12.0075 10.2383 10.25 12.1875C9.2375 11.075 8.3875 9.8625 7.675 8.5875C7.58098 8.41041 7.4406 8.2622 7.26886 8.15872C7.09713 8.05524 6.9005 8.00038 6.7 8C5.8375 8 5.2875 8.9375 5.7125 9.6875C6.5 11.1 7.4625 12.45 8.5875 13.7L3.125 19.0875C3.00631 19.2028 2.91196 19.3408 2.84753 19.4932C2.78311 19.6457 2.74991 19.8095 2.74991 19.975C2.74991 20.1405 2.78311 20.3043 2.84753 20.4568C2.91196 20.6092 3.00631 20.7472 3.125 20.8625C3.6125 21.35 4.4 21.35 4.9 20.8625L10.25 15.5L12.775 18.025C13.4125 18.6625 14.5 18.425 14.8125 17.5875ZM20.875 10.5C20.125 10.5 19.45 10.9625 19.1875 11.675L14.6 23.925C14.3 24.6875 14.875 25.5 15.6875 25.5C16.175 25.5 16.6125 25.2 16.7875 24.7375L17.9 21.75H23.8375L24.9625 24.7375C25.1375 25.1875 25.575 25.5 26.0625 25.5C26.875 25.5 27.45 24.6875 27.1625 23.925L22.575 11.675C22.3 10.9625 21.625 10.5 20.875 10.5ZM18.85 19.25L20.875 13.8375L22.9 19.25H18.85Z" fill="#263753"/>
</svg>
