<svg width="1080" height="108" viewBox="0 0 1080 108" fill="none" xmlns="http://www.w3.org/2000/svg">
<g opacity="0.06">
<path d="M0 104.551V2.646H24.5683V104.551H0Z" fill="#263753"/>
<path d="M135.604 2.64575V104.55H111.037L64.7089 41.6591V104.55H40.1406V2.64575H64.7089L111.037 65.5369V2.64575H135.604Z" fill="#263753"/>
<path d="M243.661 2.64575L205.883 98.8592L203.644 104.549H183.39L181.983 100.976L181.151 98.8591L143.385 2.64575H170.682L193.515 65.0766L216.365 2.64575H243.661Z" fill="#263753"/>
<path d="M356.578 104.551V2.646H381.146V104.551H356.578Z" fill="#263753"/>
<path d="M488.69 79.9367C480.374 96.6588 463.989 108 443.703 108C411.556 108 392.766 83.8239 392.766 54.0008C392.766 24.1761 411.556 0 443.703 0C463.932 0 480.111 11.0927 488.453 27.5075L464.265 38.1166C460.199 29.0233 452.592 22.9306 443.133 22.9306C427.754 22.9306 418.765 36.8403 418.765 53.9993C418.765 71.1565 427.754 85.0661 443.133 85.0661C452.573 85.0661 460.241 78.8942 464.316 69.7039L488.69 79.9367Z" fill="#263753"/>
<path d="M523.455 81.9046H553.654V104.55H498.887V2.64575H523.455V2.83692H553.654V25.4824H523.455V81.9046Z" fill="#263753"/>
<path d="M529 53.6837C529 46.0841 534.757 39.9238 541.858 39.9238C548.958 39.9238 554.715 46.0841 554.715 53.6837C554.715 61.2833 548.958 67.4432 541.858 67.4432C534.757 67.4432 529 61.2832 529 53.6837Z" fill="#263753"/>
<rect width="97.2" height="102.6" rx="48.6" transform="matrix(-1 0 0 1 340.201 0)" fill="#263753"/>
<path d="M308.267 26.7878C310.172 26.7943 311.997 27.6045 313.344 29.0416C314.691 30.4786 315.451 32.4258 315.457 34.4581V86.6157C315.456 86.8929 315.385 87.1648 315.251 87.4024C315.117 87.64 314.926 87.8344 314.696 87.965C314.467 88.0956 314.209 88.1575 313.95 88.1441C313.69 88.1307 313.439 88.0426 313.222 87.889L309.705 85.3915L306.187 87.889C305.951 88.0565 305.674 88.1459 305.39 88.1459C305.107 88.1459 304.83 88.0565 304.594 87.889L301.076 85.3915L297.559 87.889C297.323 88.0565 297.045 88.1459 296.762 88.1459C296.478 88.1459 296.201 88.0565 295.965 87.889L292.448 85.3915L288.93 87.889C288.694 88.0565 288.417 88.1459 288.134 88.1459C287.85 88.1459 287.573 88.0565 287.337 87.889L283.819 85.3915L280.302 87.889C280.085 88.0426 279.834 88.1307 279.574 88.1441C279.315 88.1575 279.057 88.0956 278.828 87.965C278.598 87.8344 278.407 87.64 278.273 87.4024C278.139 87.1648 278.068 86.8929 278.067 86.6157V54.4007H270.877C270.495 54.4007 270.129 54.2391 269.86 53.9514C269.59 53.6637 269.438 53.2735 269.438 52.8667V32.924C269.438 29.5553 272.03 26.7878 275.191 26.7878H308.267ZM275.191 29.8559C273.586 29.8559 272.315 31.212 272.315 32.924V51.3326H278.067V32.924C278.067 31.212 276.796 29.8559 275.191 29.8559ZM305.39 35.9921H296.762C296.381 35.9921 296.015 36.1538 295.745 36.4414C295.475 36.7291 295.324 37.1193 295.324 37.5262C295.324 37.933 295.475 38.3232 295.745 38.6109C296.015 38.8986 296.381 39.0602 296.762 39.0602H305.39C305.772 39.0602 306.138 38.8986 306.407 38.6109C306.677 38.3232 306.829 37.933 306.829 37.5262C306.829 37.1193 306.677 36.7291 306.407 36.4414C306.138 36.1538 305.772 35.9921 305.39 35.9921ZM305.39 45.1964H288.134C287.752 45.1964 287.386 45.358 287.117 45.6457C286.847 45.9334 286.695 46.3236 286.695 46.7305C286.695 47.1373 286.847 47.5275 287.117 47.8152C287.386 48.1029 287.752 48.2645 288.134 48.2645H305.39C305.772 48.2645 306.138 48.1029 306.407 47.8152C306.677 47.5275 306.829 47.1373 306.829 46.7305C306.829 46.3236 306.677 45.9334 306.407 45.6457C306.138 45.358 305.772 45.1964 305.39 45.1964ZM305.39 54.4007H288.134C287.752 54.4007 287.386 54.5623 287.117 54.85C286.847 55.1377 286.695 55.5279 286.695 55.9348C286.695 56.3416 286.847 56.7318 287.117 57.0195C287.386 57.3072 287.752 57.4688 288.134 57.4688H305.39C305.772 57.4688 306.138 57.3072 306.407 57.0195C306.677 56.7318 306.829 56.3416 306.829 55.9348C306.829 55.5279 306.677 55.1377 306.407 54.85C306.138 54.5623 305.772 54.4007 305.39 54.4007ZM305.39 63.605H288.134C287.752 63.605 287.386 63.7666 287.117 64.0543C286.847 64.342 286.695 64.7322 286.695 65.139C286.695 65.5459 286.847 65.9361 287.117 66.2238C287.386 66.5115 287.752 66.6731 288.134 66.6731H305.39C305.772 66.6731 306.138 66.5115 306.407 66.2238C306.677 65.9361 306.829 65.5459 306.829 65.139C306.829 64.7322 306.677 64.342 306.407 64.0543C306.138 63.7666 305.772 63.605 305.39 63.605Z" fill="#808B9F"/>
<path d="M674.096 72.3344C674.096 90.6202 661.568 104.408 635.552 104.408C617.051 104.408 604.14 97.8138 593.348 86.5224L605.682 68.5373L607.609 70.6371C612.041 75.4321 621.678 83.4266 636.612 83.4266C646.633 83.4266 651.065 79.03 651.065 74.7329C651.065 69.4378 642.587 67.3381 632.759 64.9416C617.438 61.1445 598.744 56.0486 597.877 33.2665V32.3681V31.4687V30.5692C598.359 14.2825 612.137 0.99292 634.395 0.99292C649.716 0.99292 663.014 5.78899 673.709 16.4808L660.798 34.0664L658.967 32.2675C652.126 25.7731 642.489 21.9761 632.469 21.9761C625.339 21.9761 621.099 24.7741 621.099 29.5701C621.099 33.9658 629.097 35.9649 638.347 38.2628C654.052 42.1595 673.227 47.4546 674.096 70.4359V71.3363V72.3344Z" fill="#263753"/>
<path d="M787.233 2.79102V102.709H764.301V63.1408H723.35V102.709H700.514V2.79102H723.35V42.059H764.301V2.79102H787.233Z" fill="#263753"/>
<path d="M813.607 102.709H881.827V81.6259H813.607V102.709ZM813.607 63.7405H881.827V42.6577H813.607V63.7405ZM813.607 2.79102V23.8738H881.827V2.79102H813.607Z" fill="#263753"/>
<path d="M908.352 102.709H976.571V81.6259H908.352V102.709ZM908.352 63.7405H976.571V42.6577H908.352V63.7405ZM908.352 2.79102V23.8738H976.571V2.79102H908.352Z" fill="#263753"/>
<path d="M1080 2.79102V23.8738H1053.11V102.71H1030.18V23.8738H1003.1V2.79102H1080Z" fill="#263753"/>
</g>
</svg>
